<?xml version="1.0" standalone="no"?>
<!DOCTYPE svg PUBLIC "-//W3C//DTD SVG 20010904//EN"
 "http://www.w3.org/TR/2001/REC-SVG-20010904/DTD/svg10.dtd">
<svg version="1.0" xmlns="http://www.w3.org/2000/svg"
 width="270.000000pt" height="66.000000pt" viewBox="0 0 270.000000 66.000000"
 preserveAspectRatio="xMidYMid meet">

<g transform="translate(0.000000,66.000000) scale(0.100000,-0.100000)"
fill="#ffffff" stroke="none">
<path d="M1680 482 c-16 -13 -24 -32 -27 -69 -4 -39 -10 -52 -24 -56 -25 -7
-24 -27 1 -34 18 -5 20 -14 20 -88 0 -61 -4 -86 -15 -95 -24 -20 -7 -30 50
-30 57 0 74 10 50 30 -11 9 -15 34 -15 96 0 84 0 84 26 84 33 0 30 33 -4 38
-19 3 -22 9 -22 47 0 42 1 44 28 42 23 -2 27 2 27 23 0 21 -5 25 -36 28 -23 2
-43 -3 -59 -16z"/>
<path d="M2193 488 c-32 -11 -43 -31 -23 -43 6 -4 10 -65 10 -150 0 -85 -4
-146 -10 -150 -5 -3 -10 -13 -10 -21 0 -11 14 -14 60 -14 46 0 60 3 60 14 0 8
-4 18 -10 21 -6 4 -10 70 -10 165 0 87 -3 165 -6 174 -7 18 -15 18 -61 4z"/>
<path d="M2473 488 c-32 -11 -43 -31 -23 -43 6 -3 10 -26 10 -50 l0 -43 -40 5
c-47 7 -81 -12 -110 -60 -65 -105 48 -246 139 -173 11 8 15 8 18 -1 7 -19 93
-17 93 1 0 8 -4 18 -10 21 -6 4 -10 70 -10 165 0 87 -3 165 -6 174 -7 18 -15
18 -61 4z m-15 -233 c4 -75 -3 -101 -27 -108 -35 -9 -61 29 -61 90 0 52 24 85
58 81 25 -3 27 -6 30 -63z"/>
<path d="M194 479 c-4 -7 0 -17 9 -24 24 -17 25 -300 2 -309 -8 -3 -15 -12
-15 -21 0 -11 12 -15 48 -15 60 0 68 7 42 35 -19 20 -20 33 -18 131 l3 109 45
-110 c43 -104 47 -110 74 -110 28 0 31 5 75 115 l46 115 3 -114 c2 -91 0 -117
-13 -131 -29 -32 -18 -40 55 -40 39 0 70 4 70 9 0 5 -7 22 -15 37 -11 21 -15
63 -15 155 0 119 1 127 22 141 12 8 18 19 14 26 -8 13 -104 16 -122 4 -6 -4
-20 -32 -32 -62 -11 -30 -30 -77 -42 -105 l-22 -50 -41 110 -42 110 -62 3
c-40 2 -64 -1 -69 -9z"/>
<path d="M1812 458 c-30 -30 0 -75 42 -64 29 7 43 41 26 61 -15 18 -52 19 -68
3z"/>
<path d="M1494 405 c-4 -26 -15 -40 -36 -51 -28 -15 -30 -34 -3 -34 11 0 15
-22 17 -102 l3 -103 63 -3 c57 -3 62 -1 62 18 0 15 -6 20 -25 20 -25 0 -25 1
-25 85 0 85 0 85 26 85 36 0 29 34 -9 38 -24 3 -27 7 -27 43 0 32 -3 39 -20
39 -14 0 -21 -9 -26 -35z"/>
<path d="M690 338 c-47 -32 -62 -63 -57 -122 8 -91 93 -136 182 -97 55 24 80
72 72 135 -12 89 -121 136 -197 84z m110 -37 c15 -30 12 -113 -6 -139 -19 -28
-49 -28 -68 0 -18 26 -21 109 -6 139 14 26 66 26 80 0z"/>
<path d="M918 353 c-20 -5 -24 -28 -8 -38 6 -3 10 -41 10 -83 0 -114 36 -150
117 -117 24 10 39 12 41 5 4 -12 79 -14 86 -1 3 5 -1 14 -9 21 -12 10 -15 37
-15 118 l0 105 -37 -6 c-45 -8 -62 -22 -45 -39 15 -15 16 -122 2 -149 -6 -11
-21 -19 -35 -19 -30 0 -34 14 -37 125 -3 78 -4 80 -28 82 -14 0 -33 -1 -42 -4z"/>
<path d="M1203 348 c-24 -12 -30 -32 -13 -43 15 -9 13 -162 -2 -167 -27 -9 7
-28 52 -28 47 0 71 12 50 25 -5 3 -10 41 -10 84 0 86 15 115 48 94 13 -8 18
-28 20 -87 2 -44 -2 -83 -7 -90 -16 -19 -3 -26 50 -26 44 0 78 19 51 28 -8 2
-12 30 -12 78 0 78 -16 126 -45 138 -29 11 -70 6 -93 -10 -20 -14 -23 -14 -28
0 -7 18 -29 19 -61 4z"/>
<path d="M1811 344 c-32 -13 -33 -15 -17 -32 12 -14 16 -38 16 -95 0 -42 -5
-79 -10 -82 -21 -13 3 -25 50 -25 47 0 71 12 50 25 -6 3 -10 47 -10 100 0 51
-3 100 -6 109 -8 20 -29 20 -73 0z"/>
<path d="M1993 346 c-71 -32 -96 -137 -47 -195 31 -37 87 -55 133 -41 39 11
71 37 71 57 0 17 -19 17 -39 -1 -30 -26 -57 -27 -84 -5 -15 11 -27 24 -27 29
0 5 24 13 52 20 87 18 121 69 80 120 -23 28 -94 36 -139 16z m81 -39 c15 -23
-2 -48 -42 -64 -31 -12 -32 -12 -32 11 0 27 37 79 53 73 6 -2 15 -11 21 -20z"/>
</g>
</svg>
